<?xml version="1.0" standalone="no"?>
<!DOCTYPE svg PUBLIC "-//W3C//DTD SVG 20010904//EN"
 "http://www.w3.org/TR/2001/REC-SVG-20010904/DTD/svg10.dtd">
<svg version="1.0" xmlns="http://www.w3.org/2000/svg"
 width="800.000000pt" height="600.000000pt" viewBox="0 0 800.000000 600.000000"
 preserveAspectRatio="xMidYMid meet">

<g transform="translate(0.000000,600.000000) scale(0.100000,-0.100000)"
fill="#000000" stroke="none">
<path d="M3350 4650 c0 -9 5 -21 12 -28 8 -8 8 -15 -2 -27 -11 -13 -10 -14 4
-9 9 3 16 12 16 19 0 7 3 21 7 31 5 12 3 15 -6 9 -8 -4 -17 -2 -22 6 -7 12 -9
11 -9 -1z"/>
<path d="M3836 4378 c-5 -16 -5 -40 0 -55 l8 -28 4 28 c2 15 2 39 0 55 l-4 27
-8 -27z"/>
<path d="M3532 3980 c-18 -17 -27 -30 -20 -30 22 0 79 40 73 50 -9 15 -17 12
-53 -20z"/>
<path d="M4485 3449 c-16 -10 -25 -19 -19 -19 7 0 22 9 35 20 30 24 23 24 -16
-1z"/>
<path d="M2914 3188 c1 -13 -8 -39 -21 -60 -18 -30 -20 -37 -8 -42 10 -4 15 1
15 16 0 12 11 34 25 48 25 26 25 27 7 44 -18 16 -19 16 -18 -6z"/>
<path d="M2188 3193 c7 -3 16 -2 19 1 4 3 -2 6 -13 5 -11 0 -14 -3 -6 -6z"/>
<path d="M2180 3163 c0 -6 8 -17 18 -24 16 -13 16 -13 2 6 -8 11 -16 22 -17
24 -2 2 -3 0 -3 -6z"/>
<path d="M3325 3090 c3 -5 8 -10 11 -10 2 0 4 5 4 10 0 6 -5 10 -11 10 -5 0
-7 -4 -4 -10z"/>
<path d="M2868 3063 c6 -2 10 -9 6 -14 -3 -5 -1 -9 4 -9 6 0 12 7 16 15 4 11
-1 15 -17 14 -12 0 -16 -3 -9 -6z"/>
<path d="M3350 3060 c0 -5 5 -10 11 -10 5 0 8 -3 6 -7 -3 -5 6 -9 19 -9 13 -1
21 2 18 7 -3 5 -12 9 -20 9 -8 0 -14 5 -14 10 0 6 -4 10 -10 10 -5 0 -10 -4
-10 -10z"/>
<path d="M2885 3020 c-12 -13 -14 -20 -5 -20 8 0 11 -9 8 -25 -3 -14 -2 -28 2
-30 7 -4 22 86 16 93 -2 1 -11 -7 -21 -18z"/>
<path d="M5660 2810 c0 -5 5 -10 10 -10 6 0 10 5 10 10 0 6 -4 10 -10 10 -5 0
-10 -4 -10 -10z"/>
<path d="M4365 2790 c44 -11 65 -11 65 0 0 6 -21 9 -47 9 -43 -1 -45 -2 -18
-9z"/>
<path d="M5587 2724 c-50 -49 -60 -80 -27 -80 15 0 20 7 20 26 0 25 16 50 32
50 4 0 3 -11 -2 -25 -11 -28 -3 -58 12 -49 5 3 8 24 7 45 -2 21 2 44 9 51 7 7
12 16 12 20 0 17 -19 6 -63 -38z"/>
<path d="M5666 2748 c-3 -13 -6 -34 -5 -48 0 -23 1 -23 8 -5 15 39 21 75 12
75 -5 0 -11 -10 -15 -22z"/>
<path d="M6090 2682 c0 -10 22 -32 32 -32 4 0 5 6 2 14 -6 16 -34 30 -34 18z"/>
<path d="M6400 2655 c7 -9 15 -13 17 -11 7 7 -7 26 -19 26 -6 0 -6 -6 2 -15z"/>
<path d="M1491 2586 c-9 -11 -6 -17 14 -30 21 -14 25 -14 25 -2 0 8 6 17 13
19 7 3 5 6 -5 6 -10 1 -18 6 -18 11 0 14 -16 12 -29 -4z"/>
<path d="M5800 2585 c-7 -9 -11 -17 -9 -20 3 -2 10 5 17 15 14 24 10 26 -8 5z"/>
<path d="M5745 2560 c-8 -13 9 -20 24 -11 10 6 9 10 -3 14 -8 3 -18 2 -21 -3z"/>
<path d="M1963 2548 c-28 -14 -28 -17 0 -59 14 -22 32 -35 47 -36 14 -1 17 1
8 3 -15 5 -15 9 -2 46 8 23 12 44 9 46 -10 11 -40 10 -62 0z"/>
<path d="M5716 2545 c4 -8 11 -15 16 -15 6 0 5 6 -2 15 -7 8 -14 15 -16 15 -2
0 -1 -7 2 -15z"/>
<path d="M1886 2495 c-17 -13 -16 -14 15 -23 41 -11 44 -10 27 17 -15 25 -17
25 -42 6z"/>
<path d="M2185 2400 l-38 -30 47 0 c45 0 46 1 44 30 -1 17 -5 30 -9 30 -3 0
-23 -13 -44 -30z"/>
<path d="M2030 2390 c-9 -18 -8 -20 16 -20 21 0 24 3 15 13 -6 8 -8 17 -4 20
3 4 1 7 -5 7 -6 0 -16 -9 -22 -20z"/>
<path d="M5616 2315 c4 -16 8 -40 8 -52 1 -12 3 -20 5 -17 7 7 30 -30 31 -49
0 -10 5 -15 10 -12 6 4 10 -8 11 -27 0 -27 2 -30 9 -13 7 17 9 14 9 -13 1 -22
5 -31 12 -26 7 4 10 1 7 -7 -3 -8 4 -30 15 -49 27 -47 27 -46 37 -30 6 9 10
10 10 3 0 -6 -5 -15 -10 -18 -11 -7 58 -145 72 -145 4 0 8 -7 8 -15 0 -17 71
-158 83 -163 4 -2 7 -10 7 -17 0 -8 6 -20 13 -27 7 -7 23 -34 35 -59 12 -25
33 -56 47 -69 13 -13 30 -39 36 -59 7 -20 20 -42 31 -49 10 -7 18 -20 18 -29
0 -12 7 -14 34 -10 26 4 34 2 30 -7 -5 -12 47 -65 64 -67 4 0 15 -2 24 -4 15
-3 13 4 -8 43 -52 95 -71 122 -79 115 -4 -5 -5 -3 -1 4 6 11 -18 58 -79 153
-13 19 -59 92 -104 162 -109 173 -346 527 -372 558 l-21 25 8 -30z m591 -937
c-3 -8 -6 -5 -6 6 -1 11 2 17 5 13 3 -3 4 -12 1 -19z m40 -70 c-3 -8 -6 -5 -6
6 -1 11 2 17 5 13 3 -3 4 -12 1 -19z"/>
<path d="M1920 2319 c0 -5 5 -7 10 -4 6 3 10 8 10 11 0 2 -4 4 -10 4 -5 0 -10
-5 -10 -11z"/>
<path d="M1391 1914 c0 -11 3 -14 6 -6 3 7 2 16 -1 19 -3 4 -6 -2 -5 -13z"/>
<path d="M6290 1253 c0 -12 5 -25 10 -28 13 -8 13 15 0 35 -8 12 -10 11 -10
-7z"/>
<path d="M3083 1043 c9 -2 25 -2 35 0 9 3 1 5 -18 5 -19 0 -27 -2 -17 -5z"/>
<path d="M2910 1030 c-20 -5 1 -6 50 -3 47 3 87 7 89 9 8 7 -103 2 -139 -6z"/>
<path d="M2400 1014 c0 -41 211 -52 368 -20 109 22 116 32 11 15 -73 -11 -327
-7 -363 7 -9 3 -16 2 -16 -2z"/>
<path d="M3660 860 c-174 -5 -183 -6 -160 -21 59 -38 320 -41 376 -4 32 21 30
36 -3 33 -16 -1 -111 -5 -213 -8z"/>
</g>
</svg>
